<?xml version="1.0" encoding="UTF-8"?>
<svg id="_Слой_2" data-name="Слой 2" xmlns="http://www.w3.org/2000/svg" viewBox="0 0 897.59 169.6">
  <defs>
    <style>
      .cls-1 {
        fill-rule: evenodd;
      }

      .cls-1, .cls-2 {
        fill: #d3d3d3;
      }
    </style>
  </defs>
  <g id="_Слой_1-2" data-name="Слой 1">
    <g>
      <g>
        <path class="cls-1" d="m5.39,21.5C.39,24-1.41,30,1.19,34.8c.6,1.2,49.1,62.7,51,64.8.2.3,62.5-77.7,62.9-78.9.1-.2-24.1-.3-53.7-.3H7.49l-2.1,1.1Z"/>
        <path class="cls-1" d="m160.69.3c-1.7.5-3.3,1.5-4.4,2.7-2,2.1-90.3,113.8-90.2,114,.1.2,9,11.5,19.8,25.2,12.2,15.5,20.3,25.3,21.2,25.9,3,2,7.4,2,10.5,0,1.4-.9,14.9-17.7,61.9-77,33-41.7,60.4-76.5,60.8-77.3,2.3-4.5.5-10.1-4-12.7l-1.8-1L197.99,0c-19.9,0-36.7.1-37.3.3Z"/>
      </g>
      <g>
        <path class="cls-2" d="m324.19,147.5l-7.3-22.3h-53.2l-7.1,22.3h-22.1l31.6-95.7h48.3l31.9,95.7h-22.1Zm-54.4-41.3h41l-15.8-49h-9.4l-15.8,49Z"/>
        <path class="cls-2" d="m349.09,99.6c0-7,1.3-13.4,3.8-19.4s6.2-11.2,10.9-15.5c4.7-4.4,10.4-7.9,17-10.4s14-3.8,22.3-3.8c6.3,0,12.4.8,18.1,2.4s10.8,3.9,15.4,6.9,8.4,6.8,11.3,11.2c2.3,3.4,3.9,7.1,5,11.1h-22.1c-1.6-3.7-4.2-6.6-7.6-8.7-4.6-2.6-11.3-3.9-20.1-3.9-21.5,0-32.2,10-32.2,30.1,0,10.6,2.3,18.3,7,23.1,4.7,4.8,11.9,7.2,21.7,7.2,8.2,0,14.6-1.7,19.2-5s6.9-8.1,6.9-14.5h-25.5v-16.3h55.9c7.7,0,11.5,3.8,11.5,11.5v41.8h-21.7v-47.9h-4.8c-.1,15.6-3.6,27.7-10.7,36.3-7,8.6-17.6,13-31.7,13-8.4,0-15.8-1.3-22-3.9s-11.4-6.1-15.5-10.5-7.1-9.7-9.1-15.7c-2.1-5.9-3-12.3-3-19.1Z"/>
        <path class="cls-2" d="m480.79,147.5V51.8h75.2v19h-53.5v19.3h45.8v19h-45.8v19.4h53.5v19h-75.2Z"/>
        <path class="cls-2" d="m570.19,147.5V51.8h46l33.3,90.3h4.8V51.8h21.7v95.7h-46l-33.3-90.3h-5l.3,13.4v76.9h-21.8Z"/>
        <path class="cls-2" d="m689.09,99.6c0-7.1,1.3-13.7,3.9-19.8,2.6-6,6.3-11.2,11.1-15.5s10.6-7.7,17.3-10.2c6.7-2.4,14.4-3.7,22.9-3.7,7.3,0,14.1.9,20.2,2.6,6.1,1.8,11.4,4.3,16,7.6,4.5,3.3,8.2,7.3,11,12,2.4,4,4,8.4,5,13.3h-22c-1.6-4.9-4.8-8.8-9.5-11.7-5.4-3.3-12.3-4.9-20.5-4.9-5.2,0-9.8.7-13.9,2-4.1,1.3-7.6,3.3-10.5,5.8-2.9,2.6-5.1,5.7-6.7,9.4-1.6,3.7-2.4,8-2.4,12.9s.8,9.2,2.4,13c1.6,3.8,3.8,6.9,6.7,9.5s6.4,4.5,10.5,5.8,8.8,2,13.9,2c8.2,0,15.1-1.6,20.5-4.9,4.8-3,8-7,9.5-12.1h22c-.9,5-2.6,9.5-5,13.6-2.8,4.8-6.5,8.8-11,12.2-4.5,3.3-9.8,5.8-16,7.6-6.1,1.8-12.8,2.6-20.2,2.6-8.5,0-16.2-1.2-22.9-3.7-6.8-2.4-12.6-5.9-17.3-10.3-4.8-4.4-8.4-9.6-11-15.6-2.8-5.8-4-12.4-4-19.5Z"/>
        <path class="cls-2" d="m873.69,51.8h23.9l-40.8,64.9h-.3v30.8h-21.7v-30.8h-.1l-40.7-64.9h23.8l23.2,39.6v12.5h9.5v-12.5l23.2-39.6Z"/>
      </g>
    </g>
  </g>
</svg>